<?xml version="1.0" standalone="no"?><!DOCTYPE svg PUBLIC "-//W3C//DTD SVG 1.1//EN" "http://www.w3.org/Graphics/SVG/1.1/DTD/svg11.dtd"><svg height="1024" node-id="1" sillyvg="true" template-height="1024" template-width="1927" version="1.1" viewBox="0 0 1927 1024" width="1927" xmlns="http://www.w3.org/2000/svg" xmlns:xlink="http://www.w3.org/1999/xlink"><defs node-id="57"></defs><path d="M 361.60 125.96 L 1386.69 125.96 C 1401.02 125.96 1412.75 137.69 1412.75 152.02 L 1412.75 841.57 C 1412.75 855.90 1401.02 867.63 1386.69 867.63 L 361.60 867.63 C 347.27 867.63 335.54 855.90 335.54 841.57 L 335.54 152.02 C 335.54 137.69 347.27 125.96 361.60 125.96 Z" fill="#ffffff" fill-rule="nonzero" node-id="59" stroke="#000000" stroke-linecap="butt" stroke-width="14" target-height="741.667" target-width="1077.208" target-x="335.542" target-y="125.963"></path><path d="M 348.57 766.64 L 1394.29 766.64 C 1401.46 766.64 1407.32 772.50 1407.32 779.67 L 1407.32 850.25 C 1407.32 857.42 1401.46 863.28 1394.29 863.28 L 348.57 863.28 C 341.41 863.28 335.54 857.42 335.54 850.25 L 335.54 779.67 C 335.54 772.50 341.41 766.64 348.57 766.64 Z" fill="#6a6b6c" fill-rule="nonzero" node-id="61" stroke="none" target-height="96.64398" target-width="1071.778" target-x="335.542" target-y="766.641"></path><path d="M 396.04 179.88 C 403.36 179.88 409.29 173.95 409.29 166.62 C 409.29 159.30 403.36 153.37 396.04 153.37 C 388.71 153.37 382.78 159.30 382.78 166.62 C 382.78 173.95 388.71 179.88 396.04 179.88 Z" fill="#ff3f08" fill-rule="nonzero" node-id="63" stroke="none" target-height="26.515991" target-width="26.515991" target-x="382.778" target-y="153.367"></path><path d="M 435.14 180.55 C 442.47 180.55 448.40 174.61 448.40 167.29 C 448.40 159.97 442.47 154.03 435.14 154.03 C 427.82 154.03 421.89 159.97 421.89 167.29 C 421.89 174.61 427.82 180.55 435.14 180.55 Z" fill="#ff3f08" fill-rule="nonzero" node-id="65" stroke="none" target-height="26.515991" target-width="26.515015" target-x="421.887" target-y="154.031"></path><path d="M 477.57 180.55 C 484.89 180.55 490.82 174.61 490.82 167.29 C 490.82 159.97 484.89 154.03 477.57 154.03 C 470.25 154.03 464.31 159.97 464.31 167.29 C 464.31 174.61 470.25 180.55 477.57 180.55 Z" fill="#ff3f08" fill-rule="nonzero" node-id="67" stroke="none" target-height="26.515991" target-width="26.515015" target-x="464.31" target-y="154.031"></path><path d="M 874.15 844.83 C 888.54 844.83 900.21 833.16 900.21 818.76 C 900.21 804.37 888.54 792.70 874.15 792.70 C 859.75 792.70 848.09 804.37 848.09 818.76 C 848.09 833.16 859.75 844.83 874.15 844.83 Z" fill="#ffffff" fill-rule="nonzero" node-id="69" stroke="none" target-height="52.122986" target-width="52.122986" target-x="848.085" target-y="792.703"></path><path d="M 1412.75 199.81 L 335.54 199.81 L 335.54 212.84 L 1412.75 212.84 L 1412.75 199.81 Z" fill="#000000" fill-rule="nonzero" node-id="71" stroke="none" target-height="13.030014" target-width="1077.208" target-x="335.542" target-y="199.805"></path><path d="M 759.04 871.97 C 759.04 871.97 769.90 944.73 744.92 952.33" fill="none" node-id="73" stroke="#000000" stroke-linecap="butt" stroke-width="14" target-height="80.35596" target-width="24.975037" target-x="744.925" target-y="871.973"></path><path d="M 1030.69 867.63 C 1030.69 867.63 1019.83 940.38 1044.81 947.99" fill="none" node-id="75" stroke="#000000" stroke-linecap="butt" stroke-width="14" target-height="80.35596" target-width="24.980042" target-x="1019.83" target-y="867.629"></path><path d="M 1129.33 1004.45 L 683.03 1004.45 C 675.86 1004.45 670.00 998.59 670.00 991.42 C 670.00 991.42 694.32 952.33 701.49 952.33 L 1110.87 952.33 C 1118.04 952.33 1142.36 991.42 1142.36 991.42 C 1142.36 998.59 1136.50 1004.45 1129.33 1004.45 Z" fill="none" node-id="77" stroke="#000000" stroke-linecap="butt" stroke-width="14" target-height="52.119995" target-width="472.362" target-x="669.998" target-y="952.33"></path><path d="M 432.73 299.16 L 807.36 299.16 C 814.53 299.16 820.39 305.03 820.39 312.19 L 820.39 313.28 C 820.39 320.45 814.53 326.31 807.36 326.31 L 432.73 326.31 C 425.56 326.31 419.70 320.45 419.70 313.28 L 419.70 312.19 C 419.70 305.03 425.56 299.16 432.73 299.16 Z" fill="#747578" fill-rule="nonzero" node-id="79" stroke="none" target-height="27.147003" target-width="400.69498" target-x="419.699" target-y="299.164"></path><path d="M 432.73 388.21 L 667.83 388.21 C 674.99 388.21 680.86 394.07 680.86 401.24 L 680.86 402.32 C 680.86 409.49 674.99 415.35 667.83 415.35 L 432.73 415.35 C 425.56 415.35 419.70 409.49 419.70 402.32 L 419.70 401.24 C 419.70 394.07 425.56 388.21 432.73 388.21 Z" fill="#a4a5ac" fill-rule="nonzero" node-id="81" stroke="none" target-height="27.147003" target-width="261.158" target-x="419.699" target-y="388.207"></path><path d="M 433.27 476.71 L 843.74 476.71 C 850.91 476.71 856.77 482.57 856.77 489.74 L 856.77 490.83 C 856.77 497.99 850.91 503.86 843.74 503.86 L 433.27 503.86 C 426.11 503.86 420.24 497.99 420.24 490.83 L 420.24 489.74 C 420.24 482.57 426.11 476.71 433.27 476.71 Z" fill="#828385" fill-rule="nonzero" node-id="83" stroke="none" target-height="27.146973" target-width="436.52997" target-x="420.242" target-y="476.709"></path><path d="M 634.16 580.95 L 792.70 580.95 C 796.29 580.95 799.22 583.88 799.22 587.47 C 799.22 591.05 796.29 593.98 792.70 593.98 L 634.16 593.98 C 630.58 593.98 627.65 591.05 627.65 587.47 C 627.65 583.88 630.58 580.95 634.16 580.95 Z" fill="#315bf4" fill-rule="nonzero" node-id="85" stroke="none" target-height="13.031006" target-width="171.57098" target-x="627.648" target-y="580.953"></path><path d="M 635.25 615.70 L 730.81 615.70 C 734.39 615.70 737.32 618.63 737.32 622.22 C 737.32 625.80 734.39 628.73 730.81 628.73 L 635.25 628.73 C 631.67 628.73 628.73 625.80 628.73 622.22 C 628.73 618.63 631.67 615.70 635.25 615.70 Z" fill="#398cff" fill-rule="nonzero" node-id="87" stroke="none" target-height="13.031006" target-width="108.58899" target-x="628.734" target-y="615.703"></path><path d="M 636.34 693.89 L 731.89 693.89 C 735.48 693.89 738.41 696.82 738.41 700.40 C 738.41 703.99 735.48 706.92 731.89 706.92 L 636.34 706.92 C 632.75 706.92 629.82 703.99 629.82 700.40 C 629.82 696.82 632.75 693.89 636.34 693.89 Z" fill="#398cff" fill-rule="nonzero" node-id="89" stroke="none" target-height="13.029968" target-width="108.58899" target-x="629.82" target-y="693.887"></path><path d="M 634.16 655.88 L 820.94 655.88 C 824.52 655.88 827.45 658.81 827.45 662.40 C 827.45 665.98 824.52 668.91 820.94 668.91 L 634.16 668.91 C 630.58 668.91 627.65 665.98 627.65 662.40 C 627.65 658.81 630.58 655.88 634.16 655.88 Z" fill="#398cff" fill-rule="nonzero" node-id="91" stroke="none" target-height="13.031006" target-width="199.805" target-x="627.648" target-y="655.881"></path><path d="M 449.56 565.75 L 589.64 565.75 C 596.81 565.75 602.67 571.62 602.67 578.78 L 602.67 705.83 C 602.67 713.00 596.81 718.86 589.64 718.86 L 449.56 718.86 C 442.39 718.86 436.53 713.00 436.53 705.83 L 436.53 578.78 C 436.53 571.62 442.39 565.75 449.56 565.75 Z" fill="none" node-id="93" stroke="#ff3f08" stroke-linecap="butt" stroke-width="10" target-height="153.11096" target-width="166.142" target-x="436.53" target-y="565.752"></path><path d="M 517.97 638.51 C 531.77 638.51 542.95 627.32 542.95 613.53 C 542.95 599.74 531.77 588.55 517.97 588.55 C 504.18 588.55 493.00 599.74 493.00 613.53 C 493.00 627.32 504.18 638.51 517.97 638.51 Z" fill="#ff3f08" fill-rule="nonzero" node-id="95" stroke="none" target-height="49.95099" target-width="49.95099" target-x="492.997" target-y="588.555"></path><path d="M 476.71 701.49 C 476.71 701.49 474.54 639.59 517.97 640.68 C 561.41 641.76 555.98 701.49 555.98 701.49 L 476.71 701.49 Z" fill="#ff3f08" fill-rule="nonzero" node-id="97" stroke="none" target-height="61.895996" target-width="86.87201" target-x="474.536" target-y="639.592"></path><path d="M 1155.39 316.00 L 943.64 316.00 C 941.25 316.00 939.30 314.04 939.30 311.65 C 939.30 309.26 941.25 307.31 943.64 307.31 L 1155.39 307.31 C 1157.78 307.31 1159.74 309.26 1159.74 311.65 C 1159.74 314.04 1157.78 316.00 1155.39 316.00 Z" fill="#d2e9fe" fill-rule="nonzero" node-id="99" stroke="none" target-height="8.687012" target-width="220.44" target-x="939.3" target-y="307.309"></path><path d="M 1155.39 369.20 L 943.64 369.20 C 941.25 369.20 939.30 367.25 939.30 364.86 C 939.30 362.47 941.25 360.52 943.64 360.52 L 1155.39 360.52 C 1157.78 360.52 1159.74 362.47 1159.74 364.86 C 1159.74 367.25 1157.78 369.20 1155.39 369.20 Z" fill="#d2e9fe" fill-rule="nonzero" node-id="101" stroke="none" target-height="8.686981" target-width="220.44" target-x="939.3" target-y="360.518"></path><path d="M 1155.39 426.76 L 943.64 426.76 C 941.25 426.76 939.30 424.80 939.30 422.41 C 939.30 420.02 941.25 418.07 943.64 418.07 L 1155.39 418.07 C 1157.78 418.07 1159.74 420.02 1159.74 422.41 C 1159.74 424.80 1157.78 426.76 1155.39 426.76 Z" fill="#d2e9fe" fill-rule="nonzero" node-id="103" stroke="none" target-height="8.686981" target-width="220.44" target-x="939.3" target-y="418.07"></path><path d="M 1066.35 722.12 C 1131.72 722.12 1184.71 669.13 1184.71 603.76 C 1184.71 538.39 1131.72 485.39 1066.35 485.39 C 1000.98 485.39 947.99 538.39 947.99 603.76 C 947.99 669.13 1000.98 722.12 1066.35 722.12 Z" fill="#315bf4" fill-rule="nonzero" node-id="105" stroke="none" target-height="236.725" target-width="236.72296" target-x="947.987" target-y="485.395"></path><path d="M 1066.05 604.71 L 1176.84 691.69 C 1209.87 649.57 1217.30 590.38 1191.02 539.79 C 1189.91 537.65 1188.75 535.56 1187.55 533.51 L 1066.05 604.71 Z" fill="#1e294a" fill-rule="nonzero" node-id="107" stroke="none" target-height="158.177" target-width="151.25" target-x="1066.05" target-y="533.51"></path><path d="M 1066.35 603.76 L 1180.97 574.14 C 1178.77 565.66 1175.59 557.29 1171.38 549.19 C 1150.27 508.56 1108.89 485.31 1066.05 485.38 L 1066.35 603.76 Z" fill="#ff3f08" fill-rule="nonzero" node-id="109" stroke="none" target-height="118.453" target-width="114.91992" target-x="1066.05" target-y="485.305"></path><path d="M 1171.38 549.19 C 1170.45 547.40 1169.48 545.64 1168.47 543.92 L 1066.35 603.76 L 1180.97 574.14 C 1178.77 565.66 1175.59 557.29 1171.38 549.19 Z" fill="#ffffff" fill-rule="nonzero" node-id="111" stroke="none" target-height="59.84198" target-width="114.619995" target-x="1066.35" target-y="543.918"></path><path d="M 1179.28 495.17 C 1169.10 495.17 1160.82 486.89 1160.82 476.71 L 1160.82 26.06 C 1160.82 15.88 1169.10 7.60 1179.28 7.60 L 1900.32 7.60 C 1910.50 7.60 1918.78 15.88 1918.78 26.06 L 1918.78 476.71 C 1918.78 486.89 1910.50 495.17 1900.32 495.17 L 1179.28 495.17 Z" fill="#ffffff" fill-rule="nonzero" node-id="113" stroke="none" target-height="487.56744" target-width="757.9601" target-x="1160.82" target-y="7.60156"></path><path d="M 1900.32 15.20 C 1906.31 15.20 1911.18 20.07 1911.18 26.06 L 1911.18 476.71 C 1911.18 482.70 1906.31 487.57 1900.32 487.57 L 1179.28 487.57 C 1173.30 487.57 1168.42 482.70 1168.42 476.71 L 1168.42 26.06 C 1168.42 20.07 1173.30 15.20 1179.28 15.20 L 1900.32 15.20 Z M 1900.32 0.00 L 1179.28 0.00 C 1164.95 0.00 1153.22 11.73 1153.22 26.06 L 1153.22 476.71 C 1153.22 491.04 1164.95 502.77 1179.28 502.77 L 1900.32 502.77 C 1914.65 502.77 1926.38 491.04 1926.38 476.71 L 1926.38 26.06 C 1926.38 11.73 1914.65 0.00 1900.32 0.00 Z" fill="#000000" fill-rule="nonzero" node-id="115" stroke="none" target-height="502.77" target-width="773.16003" target-x="1153.22" target-y="0"></path><path d="M 1926.38 82.53 L 1159.74 82.53 L 1159.74 95.56 L 1926.38 95.56 L 1926.38 82.53 Z" fill="#000000" fill-rule="nonzero" node-id="117" stroke="none" target-height="13.0308" target-width="766.64" target-x="1159.74" target-y="82.5273"></path><path d="M 1210.46 59.35 C 1217.78 59.35 1223.72 53.41 1223.72 46.09 C 1223.72 38.77 1217.78 32.83 1210.46 32.83 C 1203.14 32.83 1197.20 38.77 1197.20 46.09 C 1197.20 53.41 1203.14 59.35 1210.46 59.35 Z" fill="#ff3f08" fill-rule="nonzero" node-id="119" stroke="none" target-height="26.5154" target-width="26.52002" target-x="1197.2" target-y="32.834"></path><path d="M 1249.57 60.01 C 1256.89 60.01 1262.82 54.08 1262.82 46.76 C 1262.82 39.43 1256.89 33.50 1249.57 33.50 C 1242.24 33.50 1236.31 39.43 1236.31 46.76 C 1236.31 54.08 1242.24 60.01 1249.57 60.01 Z" fill="#ff3f08" fill-rule="nonzero" node-id="121" stroke="none" target-height="26.5154" target-width="26.509888" target-x="1236.31" target-y="33.498"></path><path d="M 1291.99 60.01 C 1299.31 60.01 1305.25 54.08 1305.25 46.76 C 1305.25 39.43 1299.31 33.50 1291.99 33.50 C 1284.67 33.50 1278.73 39.43 1278.73 46.76 C 1278.73 54.08 1284.67 60.01 1291.99 60.01 Z" fill="#ff3f08" fill-rule="nonzero" node-id="123" stroke="none" target-height="26.5154" target-width="26.52002" target-x="1278.73" target-y="33.498"></path><path d="M 1791.73 155.28 L 1494.19 155.28 C 1488.82 155.28 1484.42 150.88 1484.42 145.51 C 1484.42 140.13 1488.82 135.74 1494.19 135.74 L 1791.73 135.74 C 1797.10 135.74 1801.50 140.13 1801.50 145.51 C 1801.50 150.88 1797.10 155.28 1791.73 155.28 Z" fill="#398cff" fill-rule="nonzero" node-id="125" stroke="none" target-height="19.546005" target-width="317.07996" target-x="1484.42" target-y="135.736"></path><path d="M 1692.91 199.80 L 1494.19 199.80 C 1488.82 199.80 1484.42 195.41 1484.42 190.03 C 1484.42 184.66 1488.82 180.26 1494.19 180.26 L 1692.91 180.26 C 1698.29 180.26 1702.69 184.66 1702.69 190.03 C 1702.69 195.41 1698.29 199.80 1692.91 199.80 Z" fill="#315bf4" fill-rule="nonzero" node-id="127" stroke="none" target-height="19.546005" target-width="218.2699" target-x="1484.42" target-y="180.258"></path><path d="M 1620.16 244.33 L 1494.19 244.33 C 1488.82 244.33 1484.42 239.93 1484.42 234.55 C 1484.42 229.18 1488.82 224.78 1494.19 224.78 L 1620.16 224.78 C 1625.53 224.78 1629.93 229.18 1629.93 234.55 C 1629.93 239.93 1625.53 244.33 1620.16 244.33 Z" fill="#315bf4" fill-rule="nonzero" node-id="129" stroke="none" target-height="19.54599" target-width="145.51001" target-x="1484.42" target-y="224.781"></path><path d="M 1334.57 274.73 C 1377.75 274.73 1412.75 239.73 1412.75 196.55 C 1412.75 153.37 1377.75 118.36 1334.57 118.36 C 1291.39 118.36 1256.38 153.37 1256.38 196.55 C 1256.38 239.73 1291.39 274.73 1334.57 274.73 Z" fill="none" node-id="131" stroke="#315bf4" stroke-linecap="butt" stroke-width="12" target-height="156.36902" target-width="156.37" target-x="1256.38" target-y="118.361"></path><path d="M 1334.57 204.67 C 1349.15 204.67 1360.97 192.85 1360.97 178.27 C 1360.97 163.69 1349.15 151.87 1334.57 151.87 C 1319.99 151.87 1308.17 163.69 1308.17 178.27 C 1308.17 192.85 1319.99 204.67 1334.57 204.67 Z" fill="none" node-id="133" stroke="#315bf4" stroke-linecap="butt" stroke-width="12" target-height="52.800995" target-width="52.799927" target-x="1308.17" target-y="151.869"></path><path d="M 1294.97 261.53 C 1294.97 261.53 1294.91 210.76 1334.57 210.76 C 1374.17 210.76 1374.17 261.53 1374.17 261.53" fill="none" node-id="135" stroke="#315bf4" stroke-linecap="butt" stroke-width="12" target-height="50.769012" target-width="79.26001" target-x="1294.91" target-y="210.762"></path><path d="M 1829.73 440.87 L 1269.41 440.87 C 1262.25 440.87 1256.38 435.01 1256.38 427.84 L 1256.38 325.77 C 1256.38 318.60 1262.25 312.74 1269.41 312.74 L 1829.73 312.74 C 1836.90 312.74 1842.77 318.60 1842.77 325.77 L 1842.77 427.84 C 1842.77 435.01 1836.90 440.87 1829.73 440.87 Z" fill="none" node-id="137" stroke="#d2e9fe" stroke-linecap="butt" stroke-width="10" target-height="128.13599" target-width="586.39" target-x="1256.38" target-y="312.738"></path><path d="M 1326.96 363.77 C 1334.16 363.77 1340.00 357.94 1340.00 350.74 C 1340.00 343.55 1334.16 337.71 1326.96 337.71 C 1319.77 337.71 1313.93 343.55 1313.93 350.74 C 1313.93 357.94 1319.77 363.77 1326.96 363.77 Z" fill="#ff3f08" fill-rule="nonzero" node-id="139" stroke="none" target-height="26.060974" target-width="26.069946" target-x="1313.93" target-y="337.713"></path><path d="M 1326.96 407.21 C 1334.16 407.21 1340.00 401.38 1340.00 394.18 C 1340.00 386.98 1334.16 381.15 1326.96 381.15 C 1319.77 381.15 1313.93 386.98 1313.93 394.18 C 1313.93 401.38 1319.77 407.21 1326.96 407.21 Z" fill="#ff3f08" fill-rule="nonzero" node-id="141" stroke="none" target-height="26.062012" target-width="26.069946" target-x="1313.93" target-y="381.15"></path><path d="M 1557.17 358.35 L 1378.00 358.35 C 1373.82 358.35 1370.40 354.93 1370.40 350.74 C 1370.40 346.56 1373.82 343.14 1378.00 343.14 L 1557.17 343.14 C 1561.36 343.14 1564.78 346.56 1564.78 350.74 C 1564.78 354.93 1561.36 358.35 1557.17 358.35 Z" fill="#ff3f08" fill-rule="nonzero" node-id="143" stroke="none" target-height="15.201996" target-width="194.38" target-x="1370.4" target-y="343.143"></path><path d="M 1679.88 401.78 L 1378.00 401.78 C 1373.82 401.78 1370.40 398.36 1370.40 394.18 C 1370.40 390.00 1373.82 386.58 1378.00 386.58 L 1679.88 386.58 C 1684.06 386.58 1687.48 390.00 1687.48 394.18 C 1687.48 398.36 1684.06 401.78 1679.88 401.78 Z" fill="#ff3f08" fill-rule="nonzero" node-id="145" stroke="none" target-height="15.203003" target-width="317.07996" target-x="1370.4" target-y="386.578"></path><path d="M 1778.70 401.78 L 1721.15 401.78 C 1716.96 401.78 1713.54 398.36 1713.54 394.18 C 1713.54 390.00 1716.96 386.58 1721.15 386.58 L 1778.70 386.58 C 1782.88 386.58 1786.30 390.00 1786.30 394.18 C 1786.30 398.36 1782.88 401.78 1778.70 401.78 Z" fill="#ff3f08" fill-rule="nonzero" node-id="147" stroke="none" target-height="15.203003" target-width="72.76001" target-x="1713.54" target-y="386.578"></path><path d="M 1894.89 784.02 C 1894.89 755.83 1869.91 729.72 1837.34 729.72 C 1820.06 729.72 1802.34 737.91 1791.21 750.74 C 1784.42 719.48 1756.61 696.06 1723.32 696.06 C 1684.93 696.06 1653.82 727.17 1653.82 765.56 C 1653.82 791.52 1668.06 814.14 1689.15 826.07 C 1696.02 831.68 1704.77 835.05 1714.27 835.05 L 1848.38 835.05 C 1856.80 835.05 1864.58 832.17 1870.79 827.36 C 1885.26 818.35 1894.89 802.31 1894.89 784.02 Z" fill="#d2e9fe" fill-rule="nonzero" node-id="149" stroke="none" target-height="138.99396" target-width="241.07007" target-x="1653.82" target-y="696.059"></path><path d="M 26.09 661.01 C 15.90 661.01 7.60 652.72 7.60 642.52 L 7.60 428.18 C 7.60 417.98 15.90 409.69 26.09 409.69 L 393.06 409.69 C 403.26 409.69 411.55 417.98 411.55 428.18 L 411.55 642.52 C 411.55 652.72 403.26 661.01 393.06 661.01 L 26.09 661.01 Z" fill="#ffffff" fill-rule="nonzero" node-id="151" stroke="none" target-height="251.32602" target-width="403.95267" target-x="7.60132" target-y="409.686"></path><path d="M 393.06 417.29 C 399.07 417.29 403.95 422.17 403.95 428.18 L 403.95 642.52 C 403.95 648.52 399.07 653.41 393.06 653.41 L 26.09 653.41 C 20.09 653.41 15.20 648.52 15.20 642.52 L 15.20 428.18 C 15.20 422.17 20.09 417.29 26.09 417.29 L 393.06 417.29 Z M 393.06 402.08 L 26.09 402.08 C 11.74 402.08 0.00 413.83 0.00 428.18 L 0.00 642.52 C 0.00 656.87 11.74 668.61 26.09 668.61 L 393.06 668.61 C 407.41 668.61 419.16 656.87 419.16 642.52 L 419.16 428.18 C 419.16 413.82 407.41 402.08 393.06 402.08 Z" fill="#000000" fill-rule="nonzero" node-id="153" stroke="none" target-height="266.52798" target-width="419.156" target-x="0" target-y="402.084"></path><path d="M 79.27 487.57 C 88.23 487.57 95.56 494.90 95.56 503.86 L 95.56 605.93 C 95.56 614.89 88.23 622.22 79.27 622.22 C 70.31 622.22 62.98 614.89 62.98 605.93 L 62.98 503.86 C 62.98 494.90 70.31 487.57 79.27 487.57 Z" fill="#315bf4" fill-rule="nonzero" node-id="155" stroke="none" target-height="134.65198" target-width="32.5769" target-x="62.9819" target-y="487.568"></path><path d="M 143.34 439.79 C 152.30 439.79 159.63 447.12 159.63 456.08 L 159.63 605.93 C 159.63 614.89 152.30 622.22 143.34 622.22 C 134.38 622.22 127.05 614.89 127.05 605.93 L 127.05 456.08 C 127.05 447.12 134.38 439.79 143.34 439.79 Z" fill="#315bf4" fill-rule="nonzero" node-id="157" stroke="none" target-height="182.43097" target-width="32.576996" target-x="127.05" target-y="439.789"></path><path d="M 286.68 524.49 C 295.63 524.49 302.96 531.82 302.96 540.78 L 302.96 605.93 C 302.96 614.89 295.63 622.22 286.68 622.22 C 277.72 622.22 270.39 614.89 270.39 605.93 L 270.39 540.78 C 270.39 531.82 277.72 524.49 286.68 524.49 Z" fill="#315bf4" fill-rule="nonzero" node-id="159" stroke="none" target-height="97.73102" target-width="32.576996" target-x="270.388" target-y="524.488"></path><path d="M 342.06 487.57 C 351.02 487.57 358.35 494.90 358.35 503.86 L 358.35 605.93 C 358.35 614.89 351.02 622.22 342.06 622.22 C 333.10 622.22 325.77 614.89 325.77 605.93 L 325.77 503.86 C 325.77 494.90 333.10 487.57 342.06 487.57 Z" fill="#315bf4" fill-rule="nonzero" node-id="161" stroke="none" target-height="134.65198" target-width="32.576996" target-x="325.769" target-y="487.568"></path><path d="M 216.09 466.94 C 225.05 466.94 232.38 474.26 232.38 483.22 L 232.38 605.93 C 232.38 614.89 225.05 622.22 216.09 622.22 C 207.13 622.22 199.81 614.89 199.81 605.93 L 199.81 483.22 C 199.81 474.26 207.13 466.94 216.09 466.94 Z" fill="#ff3f08" fill-rule="nonzero" node-id="163" stroke="none" target-height="155.28299" target-width="32.57701" target-x="199.805" target-y="466.936"></path><path d="M 82.49 997.94 L 1860.65 997.94 C 1867.81 997.94 1873.68 1003.80 1873.68 1010.97 C 1873.68 1018.14 1867.81 1024.00 1860.65 1024.00 L 82.49 1024.00 C 75.32 1024.00 69.46 1018.14 69.46 1010.97 C 69.46 1003.80 75.32 997.94 82.49 997.94 Z" fill="#000000" fill-rule="nonzero" node-id="165" stroke="none" target-height="26.062012" target-width="1804.2198" target-x="69.4602" target-y="997.938"></path></svg>